<svg width="50" height="50" viewBox="0 0 50 50" fill="none" xmlns="http://www.w3.org/2000/svg">
<circle opacity="0.5" cx="25" cy="25" r="25" fill="#FFC940"/>
<path d="M25.4968 24.5383L19.5132 16.893C19.4429 16.8016 19.3327 16.75 19.2179 16.75H17.4061C17.2491 16.75 17.1624 16.9305 17.2585 17.0523L23.4788 25L17.2585 32.9477C17.2368 32.9753 17.2234 33.0085 17.2197 33.0434C17.2161 33.0783 17.2223 33.1135 17.2377 33.145C17.2531 33.1766 17.277 33.2032 17.3068 33.2217C17.3366 33.2403 17.371 33.2501 17.4061 33.25H19.2179C19.3327 33.25 19.4429 33.1961 19.5132 33.107L25.4968 25.4641C25.71 25.1898 25.71 24.8102 25.4968 24.5383ZM32.6218 24.5383L26.6382 16.893C26.5679 16.8016 26.4577 16.75 26.3429 16.75H24.5311C24.3741 16.75 24.2874 16.9305 24.3835 17.0523L30.6038 25L24.3835 32.9477C24.3618 32.9753 24.3484 33.0085 24.3447 33.0434C24.3411 33.0783 24.3473 33.1135 24.3627 33.145C24.3781 33.1766 24.402 33.2032 24.4318 33.2217C24.4616 33.2403 24.496 33.2501 24.5311 33.25H26.3429C26.4577 33.25 26.5679 33.1961 26.6382 33.107L32.6218 25.4641C32.835 25.1898 32.835 24.8102 32.6218 24.5383Z" fill="#7D241E"/>
</svg>
