<svg width="137" height="175" viewBox="0 0 137 175" fill="none" xmlns="http://www.w3.org/2000/svg">
<path d="M3.04009 113.205H16.9127V70.3632H3.04009V65.875H1V43.842H3.04009V39.3538H5.08019V35.6816H2.22406V22.625H5.08019V16.9127H6.30424V5.48821H17.3208V4.67217H24.2571V1H37.3137V4.67217H43.0259V2.63208H65.059V4.67217H70.3632V2.63208H92.3962V3.85613H98.1085V1H110.349V3.85613H118.101V5.48821H129.118V16.9127H129.934V23.033H133.606V35.6816H129.934V38.1297H132.382V41.8019H134.422V63.8349H132.382V73.6274H135.646V87.5H132.382V95.6604H135.646V109.941H132.382V119.325H134.422V141.358H132.382V145.847H129.118V147.479H133.606V162.167H129.934V170.736H34.8656V174H21.809V170.736L6.30424 155.231V143.807H3.04009V139.318H1V117.285H3.04009V113.205Z" stroke="#737373"/>
<path d="M17.7288 74.8514H67.5071V68.3231M67.5071 4.67218V68.3231M67.5071 68.3231H131.974" stroke="#737373"/>
<path d="M17.7288 113.613H67.9151V117.285M67.9151 170.736V117.285M67.9151 117.285H81.3797M131.974 117.285H81.3797M81.3797 117.285V68.3231" stroke="#737373"/>
<path d="M81.7877 68.7311H131.974V74.0354H135.238V87.092H132.382V96.0684H135.238V109.533L132.382 109.644V116.877H81.7877V68.7311Z" fill="#FFB800" fill-opacity="0.31"/>
</svg>
