<svg width="50" height="50" viewBox="0 0 50 50" fill="none" xmlns="http://www.w3.org/2000/svg">
<circle opacity="0.5" cx="25" cy="25" r="25" transform="rotate(-180 25 25)" fill="#FFC940"/>
<path d="M24.5032 25.4617L30.4868 33.107C30.5571 33.1984 30.6673 33.25 30.7821 33.25L32.5939 33.25C32.7509 33.25 32.8376 33.0695 32.7415 32.9477L26.5212 25L32.7415 17.0523C32.7632 17.0247 32.7766 16.9915 32.7803 16.9566C32.7839 16.9217 32.7777 16.8865 32.7623 16.855C32.7469 16.8234 32.723 16.7968 32.6932 16.7783C32.6634 16.7597 32.629 16.7499 32.5939 16.75L30.7821 16.75C30.6673 16.75 30.5571 16.8039 30.4868 16.893L24.5032 24.5359C24.29 24.8102 24.29 25.1898 24.5032 25.4617ZM17.3782 25.4617L23.3618 33.107C23.4321 33.1984 23.5423 33.25 23.6571 33.25L25.4689 33.25C25.6259 33.25 25.7126 33.0695 25.6165 32.9477L19.3962 25L25.6165 17.0523C25.6382 17.0247 25.6516 16.9915 25.6553 16.9566C25.6589 16.9217 25.6527 16.8865 25.6373 16.855C25.6219 16.8234 25.598 16.7968 25.5682 16.7783C25.5384 16.7597 25.504 16.7499 25.4689 16.75L23.6571 16.75C23.5423 16.75 23.4321 16.8039 23.3618 16.893L17.3782 24.5359C17.165 24.8102 17.165 25.1898 17.3782 25.4617Z" fill="#7D241E"/>
</svg>
