<svg width="69" height="69" viewBox="0 0 69 69" fill="none" xmlns="http://www.w3.org/2000/svg">
<path d="M51.5091 49.8495H47.3603C47.2505 49.8495 47.1452 49.8059 47.0676 49.7283C46.9899 49.6506 46.9463 49.5453 46.9463 49.4355V24.5447C46.946 24.4712 46.9652 24.3989 47.0021 24.3353C47.0389 24.2717 47.092 24.2191 47.156 24.1828C47.2199 24.1465 47.2923 24.1279 47.3658 24.1289C47.4393 24.1299 47.5112 24.1504 47.5741 24.1883L51.7229 26.6776C51.7843 26.7142 51.8352 26.7662 51.8706 26.8283C51.906 26.8905 51.9246 26.9607 51.9248 27.0322V49.4304C51.9252 49.4853 51.9148 49.5397 51.8941 49.5905C51.8734 49.6414 51.8429 49.6876 51.8042 49.7266C51.7656 49.7655 51.7196 49.7965 51.669 49.8176C51.6183 49.8387 51.564 49.8495 51.5091 49.8495ZM47.776 49.0198H51.095V27.2681L47.776 25.276V49.0198Z" fill="white"/>
<path d="M37.405 26.6182C37.3067 26.6187 37.2116 26.5838 37.1369 26.5198C37.0906 26.4809 37.0534 26.4323 37.0279 26.3775C37.0024 26.3227 36.9892 26.2629 36.9893 26.2025V15.4174C36.9882 15.3383 37.0098 15.2605 37.0516 15.1932C37.0933 15.126 37.1535 15.0721 37.2249 15.038C37.2963 15.0039 37.376 14.991 37.4546 15.0008C37.5331 15.0106 37.6072 15.0427 37.668 15.0933L41.8168 18.4123C41.8656 18.451 41.905 18.5003 41.932 18.5565C41.9591 18.6126 41.973 18.6741 41.9729 18.7364V25.5119C41.9736 25.6091 41.94 25.7035 41.8779 25.7783C41.8158 25.8531 41.7292 25.9036 41.6335 25.9208L37.4848 26.6131L37.405 26.6182ZM37.8191 16.2794V25.7138L41.138 25.1606V18.935L37.8191 16.2794Z" fill="white"/>
<path d="M27.448 49.8495H20.81C20.7 49.8495 20.5946 49.806 20.5166 49.7284C20.4387 49.6508 20.3947 49.5455 20.3943 49.4355V24.5447C20.3949 24.4779 20.4116 24.4121 20.4429 24.3531C20.4742 24.294 20.5192 24.2434 20.5742 24.2053C20.6293 24.1674 20.6929 24.1434 20.7594 24.1354C20.8259 24.1274 20.8933 24.1357 20.9559 24.1595L27.5939 26.6488C27.6726 26.6789 27.7403 26.7321 27.7882 26.8015C27.8361 26.8709 27.8618 26.9531 27.862 27.0373V49.4355C27.862 49.4899 27.8513 49.5437 27.8305 49.594C27.8097 49.6442 27.7792 49.6898 27.7408 49.7283C27.7023 49.7667 27.6567 49.7972 27.6065 49.818C27.5562 49.8388 27.5024 49.8495 27.448 49.8495ZM21.224 49.0198H27.0323V27.3275L21.224 25.1488V49.0198Z" fill="white"/>
<path d="M20.8099 49.8496H17.4909C17.3811 49.8496 17.2758 49.8059 17.1982 49.7283C17.1205 49.6506 17.0769 49.5453 17.0769 49.4355V27.0373C17.0774 26.9728 17.093 26.9092 17.1225 26.8518C17.152 26.7943 17.1945 26.7446 17.2466 26.7065L20.5656 24.2172C20.6276 24.1703 20.7017 24.1419 20.7791 24.1351C20.8566 24.1284 20.9344 24.1436 21.0037 24.179C21.0729 24.2144 21.1308 24.2686 21.1706 24.3354C21.2105 24.4022 21.2307 24.4788 21.229 24.5566V49.4355C21.2291 49.4903 21.2182 49.5446 21.1971 49.5952C21.1759 49.6457 21.145 49.6916 21.106 49.7301C21.067 49.7686 21.0208 49.799 20.9699 49.8195C20.9191 49.84 20.8647 49.8502 20.8099 49.8496ZM17.9067 49.0198H20.3942V25.3727L17.9067 27.2393V49.0198Z" fill="white"/>
<path d="M30.7653 49.8496H27.448C27.338 49.8496 27.2325 49.806 27.1546 49.7284C27.0767 49.6508 27.0327 49.5455 27.0322 49.4355V19.9531C27.0323 19.8732 27.0554 19.795 27.0987 19.7279C27.142 19.6608 27.2038 19.6076 27.2766 19.5747L37.2319 15.039C37.2952 15.0104 37.3646 14.9981 37.4339 15.0032C37.5032 15.0083 37.5701 15.0307 37.6285 15.0683C37.6869 15.106 37.7349 15.1577 37.7682 15.2186C37.8015 15.2796 37.8189 15.348 37.819 15.4174V45.2817C37.819 45.3915 37.7754 45.4968 37.6977 45.5744C37.6201 45.6521 37.5148 45.6957 37.405 45.6957H31.181V49.4287C31.1819 49.4838 31.1718 49.5385 31.1513 49.5897C31.1308 49.6408 31.1003 49.6873 31.0615 49.7265C31.0228 49.7657 30.9767 49.7968 30.9258 49.8179C30.8749 49.839 30.8203 49.8498 30.7653 49.8496ZM27.8603 49.0198H30.3495V45.2868C30.3495 45.1765 30.3933 45.0708 30.4713 44.9928C30.5493 44.9148 30.655 44.871 30.7653 44.871H36.9875V16.0622L27.8603 20.2195V49.0198Z" fill="white"/>
<path d="M47.3603 49.8495H44.0413C43.9315 49.8495 43.8262 49.8059 43.7485 49.7283C43.6709 49.6506 43.6273 49.5453 43.6273 49.4355V45.7025H37.405C37.3505 45.7027 37.2964 45.6922 37.246 45.6714C37.1956 45.6507 37.1498 45.6203 37.1111 45.5818C37.0725 45.5433 37.0418 45.4976 37.0209 45.4473C37 45.3969 36.9893 45.343 36.9893 45.2885V26.2025C36.9895 26.1055 37.0235 26.0117 37.0855 25.937C37.1474 25.8624 37.2334 25.8117 37.3286 25.7936L47.2856 24.134C47.3452 24.1245 47.406 24.1279 47.4641 24.1442C47.5222 24.1604 47.576 24.189 47.622 24.228C47.6679 24.267 47.7049 24.3155 47.7303 24.3702C47.7557 24.4249 47.769 24.4844 47.7692 24.5447V49.4355C47.7688 49.5443 47.7257 49.6486 47.6493 49.726C47.5728 49.8034 47.4691 49.8478 47.3603 49.8495ZM44.457 49.0198H46.9463V25.0334L37.819 26.5605V44.8863H44.0413C44.1515 44.8863 44.2573 44.9301 44.3353 45.0081C44.4132 45.086 44.457 45.1918 44.457 45.302V49.0198Z" fill="white"/>
<path d="M44.0413 53.9983H30.7653C30.6554 53.9983 30.5499 53.9547 30.472 53.8771C30.3941 53.7995 30.3501 53.6942 30.3496 53.5843V45.2868C30.3501 45.1768 30.3941 45.0715 30.472 44.9939C30.5499 44.9163 30.6554 44.8727 30.7653 44.8727H44.0397C44.1496 44.8727 44.2551 44.9163 44.333 44.9939C44.4109 45.0715 44.4549 45.1768 44.4554 45.2868V53.5843C44.4549 53.6939 44.4112 53.799 44.3336 53.8765C44.2561 53.9541 44.151 53.9979 44.0413 53.9983ZM31.1811 53.1686H43.6273V45.7025H31.1811V53.1686Z" fill="white"/>
<path d="M52.3387 53.9983H16.6611C16.5557 53.9916 16.4568 53.9449 16.3845 53.8679C16.3122 53.7908 16.272 53.6891 16.272 53.5834C16.272 53.4778 16.3122 53.3761 16.3845 53.299C16.4568 53.2219 16.5557 53.1753 16.6611 53.1686H52.3387C52.3955 53.1649 52.4523 53.173 52.5058 53.1922C52.5593 53.2114 52.6083 53.2413 52.6497 53.2802C52.6912 53.3191 52.7242 53.3661 52.7468 53.4182C52.7694 53.4704 52.781 53.5266 52.781 53.5834C52.781 53.6403 52.7694 53.6965 52.7468 53.7486C52.7242 53.8008 52.6912 53.8478 52.6497 53.8866C52.6083 53.9255 52.5593 53.9555 52.5058 53.9747C52.4523 53.9939 52.3955 54.0019 52.3387 53.9983Z" fill="white"/>
<path d="M31.5968 21.224H29.9373V24.543H31.5968V21.224Z" fill="white"/>
<path d="M34.0843 21.224H32.4248V24.543H34.0843V21.224Z" fill="white"/>
<path d="M31.5968 25.3727H29.9373V28.6917H31.5968V25.3727Z" fill="white"/>
<path d="M34.0843 25.3727H32.4248V28.6917H34.0843V25.3727Z" fill="white"/>
<path d="M31.5968 29.5215H29.9373V32.8405H31.5968V29.5215Z" fill="white"/>
<path d="M34.0843 29.5215H32.4248V32.8405H34.0843V29.5215Z" fill="white"/>
<path d="M31.5968 33.6702H29.9373V36.9893H31.5968V33.6702Z" fill="white"/>
<path d="M24.9587 29.5215H23.2992V32.8405H24.9587V29.5215Z" fill="white"/>
<path d="M24.9587 33.6702H23.2992V36.9893H24.9587V33.6702Z" fill="white"/>
<path d="M24.9587 37.819H23.2992V41.138H24.9587V37.819Z" fill="white"/>
<path d="M24.9587 41.9678H23.2992V45.2868H24.9587V41.9678Z" fill="white"/>
<path d="M34.0843 33.6702H32.4248V36.9893H34.0843V33.6702Z" fill="white"/>
<path d="M40.7224 27.862H39.0629V30.3512H40.7224V27.862Z" fill="white"/>
<path d="M43.2115 27.862H41.552V30.3512H43.2115V27.862Z" fill="white"/>
<path d="M45.7008 27.862H44.0413V30.3512H45.7008V27.862Z" fill="white"/>
<path d="M40.7224 31.181H39.0629V33.6702H40.7224V31.181Z" fill="white"/>
<path d="M43.2115 31.181H41.552V33.6702H43.2115V31.181Z" fill="white"/>
<path d="M45.7008 31.181H44.0413V33.6702H45.7008V31.181Z" fill="white"/>
<path d="M40.7224 34.5H39.0629V36.9893H40.7224V34.5Z" fill="white"/>
<path d="M43.2115 34.5H41.552V36.9893H43.2115V34.5Z" fill="white"/>
<path d="M45.7008 34.5H44.0413V36.9893H45.7008V34.5Z" fill="white"/>
<path d="M40.7224 37.819H39.0629V40.3083H40.7224V37.819Z" fill="white"/>
<path d="M43.2115 37.819H41.552V40.3083H43.2115V37.819Z" fill="white"/>
<path d="M40.7224 41.138H39.0629V43.6273H40.7224V41.138Z" fill="white"/>
<path d="M31.5968 37.819H29.9373V41.138H31.5968V37.819Z" fill="white"/>
<path d="M41.552 46.9463H33.2545V48.6058H41.552V46.9463Z" fill="white"/>
<path d="M41.552 49.4338H33.2545V51.0933H41.552V49.4338Z" fill="white"/>
<path d="M30.7653 53.9983H19.1505C19.0407 53.9983 18.9354 53.9547 18.8577 53.877C18.7801 53.7994 18.7365 53.6941 18.7365 53.5843V49.4355C18.7364 49.3256 18.78 49.2201 18.8576 49.1422C18.9352 49.0642 19.0405 49.0202 19.1505 49.0198H30.7653C30.8753 49.0202 30.9806 49.0642 31.0582 49.1422C31.1358 49.2201 31.1793 49.3256 31.1793 49.4355V53.5843C31.1793 53.6941 31.1357 53.7994 31.0581 53.877C30.9804 53.9547 30.8751 53.9983 30.7653 53.9983ZM19.5662 53.1686H30.3513V49.8495H19.5662V53.1686Z" fill="white"/>
<path d="M48.19 53.9983C48.0802 53.9983 47.9749 53.9547 47.8973 53.877C47.8196 53.7994 47.776 53.6941 47.776 53.5843V49.4355C47.7724 49.3788 47.7804 49.3219 47.7996 49.2685C47.8188 49.215 47.8488 49.166 47.8877 49.1246C47.9266 49.0831 47.9735 49.0501 48.0257 49.0275C48.0778 49.0049 48.134 48.9933 48.1909 48.9933C48.2477 48.9933 48.3039 49.0049 48.3561 49.0275C48.4082 49.0501 48.4552 49.0831 48.4941 49.1246C48.533 49.166 48.5629 49.215 48.5821 49.2685C48.6013 49.3219 48.6094 49.3788 48.6057 49.4355V53.5843C48.6053 53.6942 48.5613 53.7995 48.4834 53.8771C48.4055 53.9547 48.3 53.9983 48.19 53.9983Z" fill="white"/>
</svg>
