<svg width="37" height="36" viewBox="0 0 37 36" fill="none" xmlns="http://www.w3.org/2000/svg">
<path d="M18.2336 3.24337C23.0398 3.24337 23.609 3.26166 25.507 3.34814C27.262 3.4283 28.2152 3.7215 28.8496 3.96802C29.6897 4.29455 30.2893 4.68464 30.9191 5.3145C31.5491 5.94436 31.9391 6.54398 32.2656 7.38408C32.5121 8.01844 32.8053 8.97159 32.8855 10.7265C32.972 12.6246 32.9903 13.1939 32.9903 18C32.9903 22.8063 32.972 23.3755 32.8855 25.2735C32.8053 27.0285 32.5121 27.9816 32.2656 28.6159C31.9391 29.456 31.549 30.0558 30.9191 30.6856C30.2893 31.3155 29.6897 31.7056 28.8496 32.032C28.2152 32.2785 27.262 32.5718 25.507 32.6519C23.6093 32.7385 23.0401 32.7568 18.2336 32.7568C13.4271 32.7568 12.8578 32.7385 10.9601 32.6519C9.2051 32.5717 8.25208 32.2785 7.61772 32.032C6.77763 31.7056 6.17786 31.3155 5.548 30.6856C4.91814 30.0556 4.52805 29.456 4.20166 28.6159C3.95514 27.9817 3.6618 27.0285 3.58178 25.2735C3.49516 23.3755 3.47688 22.8063 3.47688 18C3.47688 13.1939 3.49516 12.6246 3.58178 10.7266C3.66194 8.97159 3.95514 8.01844 4.20166 7.38408C4.52805 6.54398 4.91814 5.94436 5.548 5.3145C6.178 4.6845 6.77763 4.29455 7.61772 3.96802C8.25194 3.7215 9.2051 3.4283 10.9601 3.34814C12.8581 3.26166 13.4274 3.24337 18.2336 3.24337ZM18.2336 0C13.3451 0 12.7321 0.0206719 10.8123 0.108281C8.89628 0.19575 7.58777 0.500062 6.44294 0.945C5.25916 1.40498 4.25538 2.0205 3.25469 3.02119C2.254 4.02187 1.63863 5.02566 1.17864 6.2093C0.733564 7.35427 0.429393 8.66278 0.341924 10.5787C0.254314 12.4985 0.233643 13.1115 0.233643 18C0.233643 22.8885 0.254314 23.5015 0.341924 25.4213C0.429393 27.3374 0.733564 28.6459 1.17864 29.7907C1.63849 30.9743 2.254 31.9783 3.25469 32.979C4.25538 33.9796 5.25916 34.595 6.44294 35.055C7.58791 35.5001 8.89628 35.8042 10.8122 35.8917C12.7321 35.9793 13.3451 36 18.2336 36C23.1222 36 23.7352 35.9793 25.655 35.8917C27.5709 35.8042 28.8794 35.5001 30.0242 35.055C31.208 34.5952 32.2118 33.9796 33.2125 32.979C34.2131 31.9783 34.8287 30.9745 35.2886 29.7907C35.7336 28.6457 36.0379 27.3374 36.1254 25.4215C36.213 23.5015 36.2336 22.8885 36.2336 18C36.2336 13.1115 36.213 12.4985 36.1254 10.5787C36.0379 8.66278 35.7336 7.35427 35.2886 6.20944C34.8287 5.02566 34.2131 4.02187 33.2125 3.02119C32.2118 2.0205 31.208 1.40484 30.0243 0.945C28.8794 0.500062 27.5709 0.19575 25.655 0.108281C23.7352 0.0206719 23.1222 0 18.2336 0ZM18.2336 8.75672C13.1287 8.75672 8.99036 12.8953 8.99036 18C8.99036 23.105 13.1287 27.2433 18.2336 27.2433C23.3385 27.2433 27.4769 23.105 27.4769 18C27.4769 12.8952 23.3385 8.75672 18.2336 8.75672ZM18.2336 24C14.92 24 12.2336 21.3137 12.2336 18C12.2336 14.6863 14.92 12 18.2336 12C21.5473 12 24.2337 14.6863 24.2337 18C24.2337 21.3137 21.5473 24 18.2336 24ZM30.002 8.39152C30.002 9.58458 29.035 10.5515 27.842 10.5515C26.6491 10.5515 25.682 9.58458 25.682 8.39152C25.682 7.19859 26.6491 6.23152 27.842 6.23152C29.035 6.23152 30.002 7.19859 30.002 8.39152Z" fill="white"/>
</svg>
