<svg width="308" height="244" viewBox="0 0 308 244" fill="none" xmlns="http://www.w3.org/2000/svg">
<path d="M16.162 212.727C21.5258 212.727 25.9721 211.162 29.0072 208.103C31.9716 205.115 33.6653 200.705 33.6653 194.8V162.218H22.5143V194.302C22.5143 200.065 19.9735 202.554 15.8799 202.554C12.4217 202.554 9.66907 200.705 6.84614 197.575L0 205.258C3.38791 209.313 8.46918 212.728 16.162 212.728V212.727ZM44.7457 212.016H82.3635V202.27H55.5443V191.812H78.835V182.066H55.5443V171.964H82.0107V162.218H44.7457V212.016ZM103.537 212.016H114.406V172.32H129.439V162.218H88.5037V172.32H103.536V212.016H103.537ZM138.261 212.016H149.13V162.218H138.261V212.016ZM185.266 212.87C194.299 212.87 201.286 209.313 206.368 204.973V183.347H184.913V192.809H195.852V199.922C193.099 201.914 189.57 202.91 185.618 202.91C176.867 202.91 170.656 196.223 170.656 187.117C170.656 178.51 176.937 171.467 184.842 171.467C190.559 171.467 193.946 173.316 197.758 176.518L204.604 168.194C199.452 163.783 194.087 161.365 185.195 161.365C170.232 161.365 159.293 172.96 159.293 187.117C159.293 201.985 169.879 212.87 185.266 212.87V212.87ZM216.814 212.016H254.431V202.27H227.612V191.812H250.902V182.066H227.612V171.964H254.078V162.218H216.813V212.016H216.814ZM264.1 212.016H274.828V180.359L298.754 212.016H307.999V162.218H297.272V192.88L274.122 162.218H264.1V212.016H264.1Z" fill="#B8A37A"/>
<path d="M92.7817 240.123H89.604L84.8147 233.379V240.123H82.0161V226.815H84.8147V233.261L89.5486 226.815H92.5291L87.715 233.205L92.7817 240.123ZM104.885 240.123H102.096V229.163H98.8625L98.7176 230.384C98.3447 233.485 98.0151 235.665 97.7314 236.918C97.445 238.173 97.0289 239.052 96.48 239.564C95.9316 240.074 95.1917 240.322 94.2578 240.31C93.7526 240.31 93.3086 240.241 92.9232 240.108V237.797C93.2717 237.918 93.6013 237.98 93.9062 237.98C94.2268 237.98 94.4794 237.834 94.6645 237.539C94.8523 237.244 95.0283 236.697 95.1914 235.899C95.3579 235.1 95.5768 233.793 95.851 231.975C96.1252 230.155 96.3594 228.437 96.5508 226.815H104.884V240.123H104.885ZM118.634 226.815L114.55 236.231C114.038 237.415 113.561 238.263 113.111 238.782C112.661 239.297 112.131 239.679 111.517 239.931C110.904 240.183 110.155 240.31 109.277 240.31C108.525 240.31 107.822 240.22 107.171 240.037V237.617C107.701 237.834 108.361 237.943 109.15 237.943C109.649 237.943 110.053 237.825 110.361 237.592C110.669 237.359 110.925 236.952 111.129 236.374L106.558 226.815H109.52L112.771 234.237H112.864L113.024 233.78L115.755 226.815H118.633L118.634 226.815ZM123.09 231.922H124.193C125.913 231.922 127.242 232.273 128.182 232.978C129.119 233.68 129.59 234.678 129.59 235.964C129.59 238.738 127.772 240.123 124.138 240.123H120.292V226.815H128.632V229.145H123.09V231.922ZM123.09 237.812H124.03C124.973 237.812 125.664 237.66 126.104 237.352C126.542 237.045 126.764 236.582 126.764 235.964C126.764 235.352 126.539 234.907 126.095 234.637C125.651 234.367 124.887 234.233 123.805 234.233H123.09V237.812H123.09ZM142.907 240.123H140.118V234.383H134.891V240.123H132.093V226.815H134.891V232.034H140.118V226.815H142.907V240.123ZM155.275 235.964C155.275 237.346 154.819 238.387 153.907 239.083C152.994 239.775 151.644 240.123 149.854 240.123H146.241V226.815H149.04V231.922H149.943C151.635 231.922 152.948 232.276 153.879 232.981C154.81 233.69 155.275 234.684 155.275 235.964L155.275 235.964ZM149.04 237.812H149.774C150.696 237.812 151.371 237.66 151.799 237.352C152.224 237.044 152.44 236.582 152.44 235.963C152.44 235.345 152.233 234.901 151.82 234.634C151.408 234.366 150.683 234.233 149.648 234.233H149.041V237.812H149.04ZM159.673 240.123H156.884V226.815H159.673V240.123ZM162.993 226.815H165.511V233.242L165.477 234.963L165.385 236.92H165.44L171.53 226.815H174.88V240.123H172.387V233.733C172.387 232.875 172.442 231.608 172.55 229.927H172.479L166.362 240.123H162.993V226.815H162.993ZM173.311 222.49C173.197 223.627 172.772 224.454 172.038 224.973C171.305 225.492 170.245 225.752 168.861 225.752C167.434 225.752 166.379 225.504 165.695 225.004C165.011 224.507 164.629 223.668 164.543 222.491H167.008C167.051 223.119 167.205 223.557 167.474 223.808C167.742 224.06 168.223 224.187 168.913 224.187C169.523 224.187 169.976 224.05 170.272 223.771C170.571 223.494 170.753 223.069 170.82 222.491H173.31L173.311 222.49ZM181.448 237.775H182.468C183.34 236.013 184.03 234.255 184.536 232.5C185.041 230.741 185.417 228.846 185.664 226.815H193.357V237.775H195.116V244H192.417V240.123H184.148V244H181.448V237.775H181.448ZM187.886 229.163C187.692 230.552 187.371 232.025 186.925 233.578C186.475 235.131 185.972 236.532 185.411 237.775H190.567V229.163H187.886ZM209.133 233.454C209.133 235.659 208.594 237.352 207.509 238.536C206.424 239.719 204.871 240.309 202.849 240.309C200.827 240.309 199.274 239.719 198.189 238.536C197.104 237.352 196.565 235.653 196.565 233.438C196.565 231.223 197.107 229.53 198.195 228.362C199.28 227.194 200.84 226.61 202.867 226.61C204.895 226.61 206.449 227.197 207.521 228.375C208.597 229.552 209.133 231.245 209.133 233.454ZM199.499 233.454C199.499 234.942 199.779 236.06 200.337 236.815C200.898 237.567 201.737 237.943 202.849 237.943C205.083 237.943 206.199 236.445 206.199 233.454C206.199 230.456 205.09 228.959 202.867 228.959C201.751 228.959 200.913 229.338 200.346 230.092C199.782 230.847 199.499 231.969 199.499 233.454ZM217.457 240.123L214.277 229.682H214.197C214.311 231.807 214.369 233.223 214.369 233.932V240.123H211.867V226.815H215.679L218.801 236.992H218.856L222.172 226.815H225.982V240.123H223.371V233.823C223.371 233.528 223.377 233.183 223.386 232.795C223.396 232.406 223.436 231.375 223.507 229.701H223.427L220.021 240.123H217.457H217.457Z" fill="#CBB589"/>
<path fill-rule="evenodd" clip-rule="evenodd" d="M154.001 34.7948L153.999 34.796L144.573 25.2947C147.63 24.6567 150.838 24.3141 153.998 24.3141C157.292 24.3141 160.414 24.6674 163.351 25.3687L154.001 34.7948ZM171.057 51.9865L203.358 19.4288C190.428 6.39573 172.696 0.00156191 153.999 0.000769862C153.997 0.000769862 153.997 0.000769862 153.996 0.00037384C135.482 0.000769862 115.999 6.27138 103.793 18.5742L133.289 48.3059L138.975 42.5755L115.717 19.1318C125.709 12.2529 139.571 8.14773 153.771 8.10575H153.998C168.243 8.10694 181.298 12.2339 191.558 19.8616L167.132 44.4831L165.371 46.2561L159.687 40.5257L177.471 22.5993C170.72 18.3568 162.848 16.2103 154 16.2103C145.224 16.2091 136.486 18.3904 130 22.0659L144.862 37.0482L144.864 37.0466L154.001 46.2569L159.687 51.9881L157.859 53.8296L154 57.7201L148.314 51.9897L151.16 49.1205L145.474 43.3901L143.373 45.5076L142.628 46.2585L136.943 51.9897L135.454 53.4902L141.139 59.2207L142.628 57.7201L154 69.1818L165.371 57.7185L170.652 63.0403L176.336 57.3091L171.058 51.9877L171.057 51.9865Z" fill="#CBB589"/>
<path fill-rule="evenodd" clip-rule="evenodd" d="M153.999 114.206L154.001 114.204L163.426 123.706C160.37 124.344 157.162 124.687 154.002 124.687C150.708 124.687 147.585 124.333 144.649 123.631L153.999 114.206V114.206ZM136.943 97.0142L104.643 129.572C117.572 142.605 135.304 148.999 154.001 149C154.003 149 154.003 149 154.004 149C172.518 149 192.001 142.729 204.207 130.427L174.71 100.694L169.025 106.426L192.283 129.869C182.291 136.748 168.428 140.853 154.228 140.895H154.002C139.757 140.894 126.702 136.767 116.442 129.139L140.869 104.518L142.629 102.744L148.314 108.475L130.53 126.402C137.281 130.644 145.153 132.791 154.001 132.791C162.778 132.792 171.514 130.611 178 126.935L163.139 111.953L163.137 111.955L154 102.744L148.314 97.0138L150.141 95.1715L154.001 91.2814L159.686 97.0118L156.841 99.8802L162.527 105.611L163.816 104.312L165.373 102.742L171.058 97.0118L172.547 95.5105L166.861 89.7809L165.372 91.2814L154.002 79.8201L142.629 91.2834L137.35 85.9616L131.664 91.6929L136.944 97.0142H136.943Z" fill="#CBB589"/>
<path fill-rule="evenodd" clip-rule="evenodd" d="M193.392 74.5008L193.39 74.4992L202.817 64.9978C203.45 68.0801 203.79 71.3136 203.79 74.4984C203.79 77.8178 203.439 80.9658 202.743 83.9261L193.392 74.5008H193.392ZM176.336 91.6933L208.636 124.251C221.566 111.219 227.91 93.3454 227.911 74.4992C227.911 74.4976 227.911 74.4976 227.912 74.4968C227.911 55.8339 221.69 36.1964 209.485 23.894L179.988 53.6253L185.673 59.3557L208.933 35.9132C215.756 45.9856 219.828 59.9565 219.87 74.2703V74.4988C219.87 88.8565 215.775 102.016 208.208 112.358L183.78 87.7358L182.021 85.9624L187.707 80.232L205.491 98.1579C209.701 91.3535 211.83 83.4188 211.83 74.4992C211.831 65.6524 209.667 56.8461 206.02 50.3086L191.157 65.2893L191.158 65.2909L182.021 74.5012L176.335 80.2324L174.507 78.3897L170.648 74.4996L176.334 68.7691L179.18 71.6375L184.865 65.9071L182.763 63.7884L182.018 63.0387L176.334 57.3075L174.845 55.8066L169.159 61.5378L170.648 63.0387L159.277 74.4996L170.65 85.9628L165.369 91.2846L171.056 97.015L176.334 91.6936L176.336 91.6933Z" fill="#CBB589"/>
<path fill-rule="evenodd" clip-rule="evenodd" d="M114.608 74.4996L114.61 74.5012L105.183 84.0025C104.55 80.9211 104.21 77.6872 104.21 74.502C104.21 71.1833 104.561 68.0345 105.257 65.0747L114.608 74.4996H114.608ZM131.664 57.3079L99.3631 24.7494C86.4334 37.7824 80.0898 55.6557 80.0886 74.5016C80.0886 74.5031 80.0886 74.5031 80.0886 74.5039C80.0886 93.1669 86.3101 112.804 98.5149 125.106L128.012 95.3763L122.326 89.645L99.0673 113.088C92.2439 103.016 88.1712 89.0443 88.1288 74.7313V74.502C88.1296 60.1442 92.2243 46.9848 99.7922 36.6439L124.219 61.2653L125.978 63.0391L120.292 68.7695L102.508 50.8436C98.2984 57.6481 96.1689 65.5828 96.1689 74.5016C96.1689 83.3483 98.3322 92.155 101.979 98.6921L116.843 83.7118L116.841 83.7106L125.978 74.5L131.664 68.7695L133.491 70.6122L137.351 74.502L131.665 80.2332L128.819 77.3648L123.134 83.0952L125.235 85.2128L125.98 85.9636L131.665 91.6948L133.153 93.1954L138.839 87.4649L137.35 85.964L148.721 74.5024L137.349 63.0399L142.628 57.7182L136.942 51.9877L131.663 57.3091L131.664 57.3079Z" fill="#CBB589"/>
</svg>
