<svg width="171" height="135" viewBox="0 0 171 135" fill="none" xmlns="http://www.w3.org/2000/svg">
<g clip-path="url(#clip0)">
<path d="M8.97306 117.697C11.951 117.697 14.4196 116.832 16.1047 115.139C17.7505 113.486 18.6908 111.046 18.6908 107.779V89.7519H12.4998V107.503C12.4998 110.691 11.0892 112.069 8.81644 112.069C6.89645 112.069 5.36822 111.046 3.80094 109.314L0 113.565C1.88095 115.808 4.70204 117.698 8.97306 117.698V117.697ZM24.8426 117.304H45.7278V111.912H30.8379V106.126H43.7688V100.733H30.8379V95.1442H45.5319V89.7519H24.8426V117.304ZM57.4831 117.304H63.5175V95.341H71.8637V89.7519H49.1368V95.341H57.4829V117.304H57.4831ZM76.7618 117.304H82.7962V89.7519H76.7618V117.304ZM102.858 117.776C107.874 117.776 111.753 115.808 114.575 113.407V101.442H102.663V106.677H108.736V110.613C107.208 111.715 105.249 112.266 103.054 112.266C98.1954 112.266 94.7472 108.566 94.7472 103.528C94.7472 98.7655 98.2347 94.8688 102.623 94.8688C105.797 94.8688 107.678 95.8923 109.794 97.6634L113.595 93.0581C110.735 90.6179 107.756 89.2795 102.819 89.2795C94.5121 89.2795 88.4386 95.6953 88.4386 103.528C88.4386 111.754 94.3162 117.776 102.858 117.776V117.776ZM120.374 117.304H141.259V111.912H126.369V106.126H139.3V100.733H126.369V95.1442H141.063V89.7519H120.374V117.304H120.374ZM146.627 117.304H152.583V99.7887L165.867 117.304H171V89.7519H165.044V106.716L152.191 89.7519H146.627V117.304H146.627Z" fill="#2B2A29"/>
<path d="M51.5122 132.855H49.7479L47.0889 129.124V132.855H45.5352V125.492H47.0889V129.058L49.7172 125.492H51.3719L48.6992 129.027L51.5122 132.855ZM58.2317 132.855H56.6832V126.791H54.8882L54.8077 127.467C54.6007 129.182 54.4177 130.389 54.2602 131.081C54.1012 131.776 53.8702 132.262 53.5654 132.546C53.2609 132.828 52.8502 132.965 52.3317 132.958C52.0512 132.958 51.8047 132.92 51.5907 132.847V131.568C51.7842 131.635 51.9672 131.669 52.1365 131.669C52.3145 131.669 52.4547 131.588 52.5575 131.425C52.6617 131.262 52.7595 130.959 52.85 130.518C52.9425 130.076 53.064 129.352 53.2162 128.347C53.3685 127.34 53.4985 126.389 53.6047 125.492H58.2315V132.855H58.2317ZM65.865 125.492L63.5978 130.702C63.3138 131.357 63.0485 131.826 62.7987 132.113C62.549 132.398 62.2547 132.61 61.914 132.749C61.5735 132.888 61.1577 132.959 60.67 132.959C60.2525 132.959 59.8625 132.909 59.5012 132.807V131.468C59.7955 131.589 60.1618 131.649 60.5998 131.649C60.877 131.649 61.1012 131.584 61.2723 131.455C61.4433 131.326 61.5855 131.1 61.6983 130.781L59.1607 125.492H60.805L62.6103 129.598H62.6615L62.7505 129.346L64.2666 125.492H65.8646L65.865 125.492ZM68.3393 128.318H68.9518C69.9066 128.318 70.6441 128.512 71.1661 128.902C71.6863 129.29 71.9481 129.842 71.9481 130.554C71.9481 132.088 70.9385 132.855 68.921 132.855H66.7855V125.492H71.4158V126.781H68.3393V128.318ZM68.3393 131.576H68.8611C69.3848 131.576 69.768 131.492 70.0126 131.322C70.2556 131.152 70.3788 130.896 70.3788 130.554C70.3788 130.215 70.2538 129.969 70.0073 129.82C69.7611 129.67 69.3366 129.596 68.7361 129.596H68.3391V131.576H68.3393ZM79.3416 132.855H77.7931V129.679H74.8911V132.855H73.3373V125.492H74.8911V128.38H77.7931V125.492H79.3416V132.855ZM86.2082 130.554C86.2082 131.319 85.9549 131.894 85.4484 132.279C84.9419 132.663 84.1924 132.855 83.1982 132.855H81.1927V125.492H82.7464V128.318H83.2477C84.1872 128.318 84.916 128.513 85.4329 128.904C85.9497 129.296 86.208 129.846 86.208 130.554L86.2082 130.554ZM82.7467 131.576H83.1539C83.6656 131.576 84.0404 131.492 84.2782 131.322C84.5144 131.152 84.6342 130.896 84.6342 130.553C84.6342 130.211 84.5194 129.966 84.2902 129.818C84.0609 129.67 83.6587 129.596 83.0839 129.596H82.7469V131.576H82.7467ZM88.65 132.855H87.1014V125.492H88.65V132.855ZM90.4929 125.492H91.8909V129.048L91.8722 130L91.8209 131.083H91.8517L95.2327 125.492H97.0927V132.855H95.7085V129.319C95.7085 128.845 95.7392 128.144 95.7992 127.214H95.76L92.3634 132.855H90.4932V125.492H90.4929ZM96.2217 123.099C96.1585 123.728 95.9222 124.186 95.515 124.473C95.1077 124.76 94.5192 124.904 93.7507 124.904C92.9585 124.904 92.3732 124.766 91.9935 124.49C91.6135 124.215 91.4015 123.751 91.3535 123.099H92.7223C92.7463 123.447 92.8317 123.689 92.9807 123.828C93.1297 123.967 93.3965 124.038 93.7798 124.038C94.1185 124.038 94.37 123.962 94.5343 123.808C94.7003 123.655 94.8013 123.419 94.8388 123.099H96.2213L96.2217 123.099ZM100.739 131.556H101.306C101.79 130.581 102.173 129.608 102.454 128.637C102.734 127.664 102.943 126.616 103.08 125.492H107.351V131.556H108.328V135H106.829V132.855H102.238V135H100.739V131.556H100.739ZM104.314 126.791C104.206 127.56 104.028 128.374 103.78 129.234C103.53 130.093 103.251 130.868 102.94 131.556H105.802V126.791H104.314ZM116.11 129.165C116.11 130.385 115.81 131.322 115.208 131.977C114.606 132.632 113.743 132.958 112.621 132.958C111.498 132.958 110.636 132.631 110.034 131.977C109.431 131.322 109.132 130.382 109.132 129.156C109.132 127.931 109.433 126.994 110.037 126.348C110.639 125.701 111.505 125.378 112.631 125.378C113.757 125.378 114.619 125.703 115.215 126.355C115.812 127.006 116.11 127.943 116.11 129.165ZM110.761 129.165C110.761 129.988 110.917 130.607 111.226 131.025C111.538 131.441 112.003 131.649 112.621 131.649C113.861 131.649 114.481 130.82 114.481 129.165C114.481 127.506 113.865 126.678 112.631 126.678C112.012 126.678 111.546 126.888 111.231 127.305C110.918 127.723 110.761 128.343 110.761 129.165ZM120.731 132.855L118.966 127.078H118.921C118.984 128.254 119.017 129.038 119.017 129.43V132.855H117.627V125.492H119.744L121.477 131.123H121.508L123.349 125.492H125.464V132.855H124.015V129.37C124.015 129.206 124.018 129.015 124.023 128.8C124.029 128.586 124.051 128.015 124.09 127.089H124.046L122.155 132.855H120.731H120.731Z" fill="#65231C"/>
<path fill-rule="evenodd" clip-rule="evenodd" d="M85.5003 19.2513L85.4994 19.2519L80.266 13.995C81.9633 13.6421 83.7446 13.4525 85.4988 13.4525C87.3274 13.4525 89.0611 13.648 90.6916 14.036L85.5003 19.2513ZM94.9701 28.7631L112.903 10.7496C105.724 3.53866 95.8797 0.000901472 85.4992 0.000463251C85.4984 0.000463251 85.4984 0.000463251 85.4979 0.000244141C75.2187 0.000463251 64.4017 3.46986 57.6255 10.2767L74.0013 26.7267L77.1581 23.5561L64.2456 10.5852C69.7931 6.7793 77.489 4.508 85.3727 4.48477H85.4988C93.4074 4.48543 100.656 6.76878 106.352 10.9891L92.7905 24.6116L91.813 25.5925L88.6571 22.422L98.5306 12.5038C94.7829 10.1564 90.4122 8.96887 85.4997 8.96887C80.6272 8.96821 75.776 10.1751 72.1753 12.2086L80.4266 20.498L80.4277 20.4971L85.5005 25.593L88.6573 28.764L87.6421 29.7828L85.4997 31.9354L82.3429 28.7648L83.9232 27.1774L80.7664 24.0068L79.6001 25.1784L79.1865 25.5939L76.0301 28.7648L75.2034 29.595L78.3598 32.7656L79.1865 31.9354L85.4997 38.2768L91.8133 31.9345L94.7449 34.8789L97.9009 31.7079L94.9703 28.7637L94.9701 28.7631Z" fill="#65231C"/>
<path fill-rule="evenodd" clip-rule="evenodd" d="M85.4997 63.1878L85.5006 63.1869L90.7336 68.4438C89.0368 68.797 87.2555 68.9867 85.5013 68.9867C83.6727 68.9867 81.9383 68.7911 80.3084 68.4026L85.4997 63.188V63.1878ZM76.0304 53.676L58.0972 71.6895C65.2757 78.9004 75.1202 82.4379 85.5008 82.4386C85.5019 82.4386 85.5019 82.4386 85.5021 82.4388C95.7814 82.4386 106.598 78.9692 113.375 72.1623L96.9983 55.7121L93.842 58.8831L106.755 71.854C101.207 75.66 93.5106 77.9308 85.6269 77.9545H85.5013C77.5927 77.9538 70.3444 75.6705 64.6481 71.4502L78.21 57.8277L79.1868 56.8463L82.3432 60.0172L72.4699 69.9355C76.2176 72.2828 80.5883 73.4704 85.5008 73.4704C90.3737 73.471 95.2241 72.2642 98.825 70.2304L90.5739 61.9415L90.5731 61.9423L85.5 56.8463L82.3432 53.6757L83.3579 52.6564L85.5008 50.5041L88.6572 53.6746L87.0773 55.2617L90.2341 58.4326L90.9498 57.7135L91.8142 56.8452L94.9706 53.6746L95.7973 52.844L92.6405 49.6739L91.814 50.5041L85.5011 44.1628L79.187 50.5052L76.2562 47.5608L73.0994 50.7318L76.0306 53.676H76.0304Z" fill="#65231C"/>
<path fill-rule="evenodd" clip-rule="evenodd" d="M107.37 41.2198L107.369 41.2189L112.603 35.962C112.954 37.6673 113.143 39.4564 113.143 41.2184C113.143 43.055 112.948 44.7967 112.562 46.4346L107.37 41.2198H107.37ZM97.9007 50.732L115.834 68.7455C123.012 61.535 126.534 51.6461 126.535 41.2189C126.535 41.218 126.535 41.218 126.536 41.2176C126.535 30.8918 123.081 20.0268 116.305 13.2201L99.9283 29.6698L103.085 32.8403L115.998 19.8701C119.787 25.4429 122.047 33.1727 122.071 41.0922V41.2187C122.071 49.1625 119.797 56.4435 115.596 62.1652L102.034 48.5424L101.057 47.5612L104.214 44.3907L114.088 54.3088C116.425 50.544 117.607 46.1539 117.607 41.2189C117.608 36.3242 116.406 31.4518 114.381 27.8347L106.129 36.1233L106.13 36.1241L101.057 41.22L97.9003 44.3909L96.8856 43.3714L94.7429 41.2191L97.8997 38.0486L99.4796 39.6356L102.636 36.4651L101.469 35.2928L101.056 34.878L97.8997 31.7071L97.0732 30.8767L93.9164 34.0476L94.7429 34.878L88.4297 41.2191L94.7439 47.5615L91.8123 50.5059L94.9693 53.6764L97.8999 50.7322L97.9007 50.732Z" fill="#65231C"/>
<path fill-rule="evenodd" clip-rule="evenodd" d="M63.6299 41.2191L63.6308 41.22L58.3973 46.4769C58.0459 44.772 57.8568 42.9827 57.8568 41.2204C57.8568 39.3843 58.0516 37.6421 58.4384 36.0045L63.6297 41.2191H63.6299ZM73.0992 31.7073L55.1659 13.6934C47.9875 20.9043 44.4655 30.7932 44.4648 41.2202C44.4648 41.2211 44.4648 41.2211 44.4648 41.2215C44.4648 51.5473 47.919 62.4121 54.695 69.2188L71.0717 52.7697L67.9149 49.5987L55.0017 62.5694C51.2134 56.9966 48.9523 49.2664 48.9287 41.3473V41.2204C48.9291 33.2766 51.2025 25.9957 55.4041 20.2743L68.9656 33.8969L69.9426 34.8783L66.7858 38.0488L56.9121 28.1308C54.5748 31.8955 53.3925 36.2856 53.3925 41.2202C53.3925 46.1149 54.5936 50.9875 56.6181 54.6043L64.8704 46.316L64.8695 46.3154L69.9426 41.2193L73.099 38.0488L74.1135 39.0683L76.2564 41.2204L73.0996 44.3914L71.5197 42.8044L68.3633 45.9749L69.5297 47.1465L69.9433 47.5619L73.0996 50.7329L73.9261 51.5631L77.0825 48.3926L76.2562 47.5621L82.569 41.2206L76.2554 34.8787L79.1862 31.9343L76.0298 28.7638L73.0986 31.708L73.0992 31.7073Z" fill="#65231C"/>
</g>
<defs>
<clipPath id="clip0">
<rect width="171" height="135" fill="white"/>
</clipPath>
</defs>
</svg>
