<svg width="21" height="25" viewBox="0 0 21 25" fill="none" xmlns="http://www.w3.org/2000/svg">
<path d="M19.875 10.4166C19.875 17.7083 10.5 23.9583 10.5 23.9583C10.5 23.9583 1.125 17.7083 1.125 10.4166C1.125 7.93022 2.11272 5.54565 3.87087 3.7875C5.62903 2.02935 8.0136 1.04163 10.5 1.04163C12.9864 1.04163 15.371 2.02935 17.1291 3.7875C18.8873 5.54565 19.875 7.93022 19.875 10.4166Z" stroke="#FFB800" stroke-width="2" stroke-linecap="round" stroke-linejoin="round"/>
<path d="M10.5 13.5416C12.2259 13.5416 13.625 12.1425 13.625 10.4166C13.625 8.69074 12.2259 7.29163 10.5 7.29163C8.77411 7.29163 7.375 8.69074 7.375 10.4166C7.375 12.1425 8.77411 13.5416 10.5 13.5416Z" stroke="#FFB800" stroke-width="2" stroke-linecap="round" stroke-linejoin="round"/>
</svg>
