<svg width="146" height="146" viewBox="0 0 146 146" fill="none" xmlns="http://www.w3.org/2000/svg">
<g clip-path="url(#clip0)">
<circle cx="72.5" cy="55.5" r="38" fill="#C6B085" stroke="#C6B085" stroke-width="3"/>
<path d="M73 0C42.1404 0 17.0332 26.4163 17.0332 58.8868C17.0332 90.7073 69.0651 143.073 71.2796 145.29C71.7541 145.762 72.3772 146 73 146C73.623 146 74.2458 145.762 74.7203 145.287C76.9346 143.073 128.967 90.7076 128.967 58.887C128.967 26.4163 103.86 0 73 0ZM73 140.082C63.9018 130.646 21.9 85.6167 21.9 58.8868C21.9 29.1002 44.8245 4.86676 73 4.86676C101.175 4.86676 124.1 29.1002 124.1 58.8868C124.1 85.6048 82.0959 130.643 73 140.082Z" fill="black"/>
<path d="M73 119.233C71.6569 119.233 70.5668 120.323 70.5668 121.666V143.566C70.5668 144.91 71.6569 146 73 146C74.3431 146 75.4333 144.91 75.4333 143.566V121.666C75.4333 120.323 74.3431 119.233 73 119.233Z" fill="black"/>
<path d="M77.8668 38.9332H68.1336C66.7905 38.9332 65.7003 40.0234 65.7003 41.3665V51.1C65.7003 52.4431 66.7905 53.5332 68.1336 53.5332H77.8668C81.8915 53.5332 85.1668 50.2579 85.1668 46.2332C85.1668 42.2085 81.8915 38.9332 77.8668 38.9332ZM77.8668 48.6667H70.5668V43.8H77.8668C79.2099 43.8 80.3 44.8924 80.3 46.2332C80.3 47.574 79.2099 48.6667 77.8668 48.6667Z" fill="black"/>
<path d="M77.8668 29.2H58.4C57.057 29.2 55.9668 30.2902 55.9668 31.6332V80.3C55.9668 81.6431 57.057 82.7332 58.4 82.7332H68.1333C69.4764 82.7332 70.5665 81.6431 70.5665 80.3V63.2668H77.8665C87.2593 63.2668 94.8998 55.626 94.8998 46.2335C94.8998 36.8411 87.2593 29.2 77.8668 29.2ZM77.8668 58.4H68.1336C66.7905 58.4 65.7003 59.4902 65.7003 60.8332V77.8665H60.8336V34.0665H77.8668C84.5754 34.0665 90.0336 39.5244 90.0336 46.2332C90.0333 52.9421 84.5754 58.4 77.8668 58.4Z" fill="black"/>
<path d="M143.567 141.133H133.834C132.49 141.133 131.4 142.223 131.4 143.566C131.4 144.91 132.49 146 133.834 146H143.567C144.91 146 146 144.91 146 143.566C146 142.223 144.91 141.133 143.567 141.133Z" fill="black"/>
<path d="M58.4 141.133H2.43324C1.09015 141.133 0 142.223 0 143.566C0 144.91 1.09015 146 2.43324 146H58.4C59.7431 146 60.8332 144.91 60.8332 143.567C60.8332 142.224 59.7431 141.133 58.4 141.133Z" fill="black"/>
<path d="M116.8 141.133H87.6C86.2569 141.133 85.1667 142.223 85.1667 143.566C85.1667 144.91 86.2569 146 87.6 146H116.8C118.143 146 119.233 144.91 119.233 143.567C119.233 142.224 118.143 141.133 116.8 141.133Z" fill="black"/>
<path d="M72.9999 12.1667C48.8492 12.1667 29.2 31.816 29.2 55.9668C29.2 80.1175 48.8492 99.7668 72.9999 99.7668C97.1507 99.7668 116.8 80.1175 116.8 55.9668C116.8 31.816 97.1507 12.1667 72.9999 12.1667ZM72.9999 94.9C51.5305 94.9 34.0667 77.4336 34.0667 55.9668C34.0667 34.4999 51.5305 17.0332 72.9999 17.0332C94.4694 17.0332 111.933 34.4996 111.933 55.9665C111.933 77.4333 94.4694 94.9 72.9999 94.9Z" fill="black"/>
</g>
<defs>
<clipPath id="clip0">
<rect width="146" height="146" fill="white"/>
</clipPath>
</defs>
</svg>
