<svg width="221" height="203" viewBox="0 0 221 203" fill="none" xmlns="http://www.w3.org/2000/svg">
<circle cx="170" cy="51" r="49.5" fill="#C6B085" stroke="#C6B085" stroke-width="3"/>
<path d="M145.304 184.898H130.328C128.653 184.898 127.285 184.5 126.025 183.646C121.485 180.564 117.868 170.694 115.707 164.797C115.464 164.136 115.221 163.475 114.975 162.814C111.419 153.25 106.994 141.348 98.2025 135.203C94.2666 132.444 89.7924 131.046 84.9049 131.046H79.0215V103.795C81.1121 103.788 83.075 102.895 84.5482 101.279C86.029 99.6613 86.8457 97.5022 86.8477 95.1998C86.8497 92.8933 86.0343 90.7268 84.5485 89.0976L68.2861 71.3246C67.4325 70.3916 66.0509 70.3939 65.2005 71.3307C64.3498 72.2668 64.3522 73.7821 65.206 74.7147L81.4659 92.4845C82.1234 93.2059 82.4853 94.1686 82.4841 95.1953C82.4832 96.2176 82.1225 97.1742 81.4659 97.8921C80.1064 99.3828 77.895 99.3828 76.5355 97.8921L44.9666 63.2777C44.1145 62.3432 42.7332 62.3432 41.8814 63.2777L10.3124 97.8921C9.65553 98.6125 8.77927 99.0091 7.84452 99.0091C7.84336 99.0091 7.8422 99.0091 7.84103 99.0091C6.90891 99.0082 6.037 98.6125 5.37951 97.8889C4.72522 97.1742 4.36476 96.2176 4.36389 95.1953C4.36302 94.1686 4.72464 93.2059 5.38242 92.4845L40.9618 53.4626C41.6134 52.7453 42.4856 52.3496 43.4175 52.3487H43.4209C44.3557 52.3487 45.2322 52.7453 45.8892 53.4657L58.49 67.2862C59.3419 68.2207 60.7235 68.2207 61.5756 67.2862C62.4277 66.3516 62.4277 64.8367 61.5756 63.9021L48.9747 50.0817C47.4933 48.4573 45.5214 47.563 43.4209 47.563C43.4183 47.563 43.4157 47.563 43.4134 47.563C41.3144 47.5652 39.3457 48.4605 37.8733 50.0817L2.29686 89.1005C0.813723 90.7271 -0.00203268 92.8929 3.80375e-06 95.1998C0.00204028 97.5019 0.818668 99.661 2.29366 101.273C3.76662 102.894 5.73095 103.789 7.82619 103.795V145.947V197.406H2.18195C0.976932 197.406 3.80375e-06 198.478 3.80375e-06 199.799C3.80375e-06 201.121 0.976932 202.192 2.18195 202.192H145.395C147.357 202.192 148.954 200.445 148.954 198.298V188.9C148.954 186.693 147.317 184.898 145.304 184.898ZM17.4666 197.406H12.1901V148.34H17.4666V197.406ZM32.4676 197.406H21.8305V148.34H30.3115H32.4676V197.406ZM50.0165 197.406H36.8315V189.765H50.0165V197.406ZM50.0165 184.979H36.8315V175.963H50.0165V184.979ZM50.0165 171.177H36.8315V162.152H50.0165V171.177ZM50.0165 157.366H36.8315V148.34H50.0165V157.366ZM54.3542 143.554H32.4935V131.693C32.4935 125.083 37.3967 119.705 43.4239 119.705C49.451 119.705 54.3542 125.083 54.3542 131.693V143.554ZM65.0091 197.406H54.3804V148.34H56.5362H65.0091V197.406ZM58.7181 143.554V131.693C58.7181 122.444 51.8572 114.919 43.4239 114.919C34.9905 114.919 28.1296 122.443 28.1296 131.693V143.554H19.6485H12.1901V102.363C12.6201 102.049 13.0247 101.686 13.398 101.276L43.4239 68.3538L73.4494 101.276C73.823 101.686 74.2276 102.049 74.6576 102.363V143.554H67.191H58.7181ZM79.0215 197.406V181.565C79.0215 180.244 78.0446 179.172 76.8396 179.172C75.6346 179.172 74.6576 180.244 74.6576 181.565V197.406H69.373V148.34H74.6576V170.522C74.6576 171.843 75.6346 172.915 76.8396 172.915C78.0446 172.915 79.0215 171.843 79.0215 170.522V148.34H84.9049C86.7799 148.34 88.3099 148.799 89.7191 149.783C94.3384 153.013 97.7784 162.325 100.054 168.487C100.336 169.249 100.618 170.01 100.9 170.772C104.279 179.903 108.444 191.155 116.43 197.406H79.0215ZM144.59 197.406H130.328C126.548 197.406 123.08 196.355 120.022 194.283C112.393 189.101 108.436 178.407 104.944 168.971C104.662 168.211 104.38 167.451 104.099 166.69C101.615 159.964 97.8598 149.799 92.064 145.746C89.9516 144.271 87.6099 143.554 84.9049 143.554H79.0215V135.831H84.9049C88.9464 135.831 92.6298 136.976 95.855 139.237C103.478 144.565 107.439 155.22 110.935 164.621C111.177 165.273 111.418 165.927 111.658 166.582C114.171 173.441 117.97 183.806 123.73 187.716C125.684 189.04 127.842 189.683 130.328 189.683H144.59V197.406Z" fill="black"/>
<path d="M100.062 89.9205H132.018C141.357 89.9205 148.954 81.5922 148.954 71.3555C148.954 61.1138 141.357 52.7816 132.018 52.7816C131.908 52.7816 131.796 52.7829 131.685 52.7855C128.271 46.1836 121.806 42 114.816 42C104.122 42 95.4229 51.5376 95.4229 63.2605C95.4229 63.6944 95.4351 64.1312 95.4596 64.568C91.0154 66.5721 88.0503 71.3166 88.0503 76.7459C88.0503 84.0104 93.4388 89.9205 100.062 89.9205ZM98.315 68.5755C99.4284 68.2906 100.152 67.1116 99.9745 65.873C99.8499 65.0048 99.7865 64.1258 99.7865 63.2605C99.7865 54.1766 106.528 46.786 114.815 46.786C120.626 46.786 125.967 50.5153 128.425 56.2863C128.819 57.2132 129.708 57.7623 130.635 57.6532C131.125 57.5954 131.577 57.5673 132.018 57.5673C138.95 57.5673 144.59 63.7525 144.59 71.3552C144.59 78.9529 138.95 85.1342 132.018 85.1342H100.062C95.8451 85.1342 92.4142 81.3714 92.4142 76.7459C92.4142 72.8249 94.8408 69.4651 98.315 68.5755Z" fill="black"/>
<path d="M43.4239 86.509C38.0738 86.509 33.7209 91.2829 33.7209 97.1509C33.7209 103.019 38.0738 107.793 43.4239 107.793C48.774 107.793 53.1268 103.019 53.1268 97.1509C53.1268 91.2829 48.774 86.509 43.4239 86.509ZM43.4239 103.007C40.48 103.007 38.0848 100.38 38.0848 97.1509C38.0848 93.922 40.48 91.2951 43.4239 91.2951C46.3678 91.2951 48.763 93.922 48.763 97.1509C48.763 100.38 46.3678 103.007 43.4239 103.007Z" fill="black"/>
</svg>
