<svg width="87" height="87" viewBox="0 0 87 87" fill="none" xmlns="http://www.w3.org/2000/svg">
<circle cx="43.5" cy="43.5" r="35.5" fill="#FFB800"/>
<circle cx="43.5" cy="43.5" r="43" stroke="#FFB800"/>
<path d="M42.2607 45.6266C43.9423 47.3325 45.977 48.6496 48.2218 49.4853L51.2587 47.0686C51.3488 47.0066 51.4555 46.9734 51.5649 46.9734C51.6742 46.9734 51.7809 47.0066 51.871 47.0686L57.5099 50.7016C57.7239 50.8303 57.9052 51.0071 58.0392 51.2178C58.1732 51.4286 58.2564 51.6677 58.2822 51.9161C58.308 52.1646 58.2757 52.4156 58.1878 52.6494C58.0998 52.8832 57.9588 53.0934 57.7757 53.2633L55.1335 55.8733C54.7551 56.2472 54.29 56.5216 53.7798 56.672C53.2695 56.8224 52.73 56.8441 52.2093 56.7353C47.0153 55.6625 42.2278 53.1501 38.394 49.4853C34.6454 45.7839 32.0513 41.0743 30.9265 35.9278C30.8154 35.4151 30.8386 34.8825 30.9939 34.3815C31.1491 33.8804 31.4311 33.428 31.8126 33.068L34.5515 30.4258C34.721 30.2516 34.9277 30.1181 35.1561 30.0351C35.3846 29.9521 35.6288 29.9219 35.8706 29.9467C36.1123 29.9715 36.3453 30.0507 36.5522 30.1783C36.759 30.3059 36.9343 30.4786 37.0649 30.6836L40.8187 36.25C40.8835 36.3374 40.9184 36.4433 40.9184 36.5521C40.9184 36.6608 40.8835 36.7667 40.8187 36.8541L38.3457 39.8266C39.2041 42.0266 40.5414 44.0078 42.2607 45.6266Z" fill="white"/>
</svg>
