<svg width="160" height="160" viewBox="0 0 160 160" fill="none" xmlns="http://www.w3.org/2000/svg">
<circle cx="80" cy="80" r="77" stroke="#C6B085" stroke-width="6"/>
<g clip-path="url(#clip0)">
<path d="M140.65 19.6487C121.941 18.87 96.9385 14.1918 83.8249 2.28526C82.9123 1.45631 81.7316 1 80.5002 1C79.269 1 78.0883 1.45631 77.1754 2.28497C66.4976 11.9808 44.7228 18.6342 20.3494 19.6487C17.6883 19.7596 15.604 21.9312 15.604 24.5926V55.5764C15.604 56.8141 16.6072 57.8176 17.8452 57.8176C19.0833 57.8176 20.0864 56.8141 20.0864 55.5764V24.5926C20.0864 24.3422 20.2837 24.1381 20.5356 24.1273C46.2953 23.0551 68.5954 16.1303 80.1885 5.60347C80.3672 5.4415 80.6337 5.4418 80.8112 5.60347C94.9196 18.4131 121.181 23.3243 140.464 24.1273C140.716 24.1378 140.913 24.3422 140.913 24.5926V75.7635C140.913 100.62 127.482 123.679 105.859 135.941L83.1478 148.82C81.5356 149.734 79.4638 149.734 77.8516 148.82L55.1403 135.941C33.5182 123.679 20.0864 100.62 20.0864 75.7635V66.0354C20.0864 64.7977 19.0833 63.7942 17.8452 63.7942C16.6072 63.7942 15.604 64.7977 15.604 66.0354V75.7635C15.604 102.231 29.9063 126.784 52.9296 139.84L75.6409 152.719C78.6441 154.422 82.3362 154.433 85.3588 152.719L108.07 139.84C131.093 126.784 145.396 102.231 145.396 75.7635V24.5926C145.396 21.9309 143.311 19.7593 140.65 19.6487V19.6487Z" fill="black"/>
<path d="M55.8173 110.625H89.6427C90.8808 110.625 91.8839 109.621 91.8839 108.383C91.8839 107.146 90.8808 106.142 89.6427 106.142H55.8173C54.0656 106.142 52.6405 104.717 52.6405 102.965V67.5973C52.6405 65.8455 54.0656 64.4204 55.8173 64.4204H105.182C106.934 64.4204 108.359 65.8455 108.359 67.5973V102.965C108.359 104.717 106.934 106.142 105.182 106.142H100.102C98.8637 106.142 97.8605 107.146 97.8605 108.383C97.8605 109.621 98.8637 110.625 100.102 110.625H105.182C109.405 110.625 112.841 107.189 112.841 102.965V67.5973C112.841 63.3739 109.405 59.938 105.182 59.938H104.427V55.2117C104.427 42.0181 93.693 31.2844 80.4997 31.2844C67.3064 31.2844 56.5728 42.0181 56.5728 55.2117V59.938H55.8176C51.5943 59.938 48.1583 63.3739 48.1583 67.5973V102.965C48.1583 107.189 51.5943 110.625 55.8173 110.625V110.625ZM91.4258 59.938H69.5739V55.2117C69.5739 49.187 74.4753 44.2856 80.5 44.2856C86.5247 44.2856 91.4261 49.187 91.4261 55.2117V59.938H91.4258ZM61.0552 55.2117C61.0552 44.49 69.778 35.7669 80.4997 35.7669C91.2214 35.7669 99.9442 44.4897 99.9442 55.2117V59.938H95.908V55.2117C95.908 46.7154 88.9957 39.8032 80.4994 39.8032C72.0031 39.8032 65.0909 46.7154 65.0909 55.2117V59.938H61.0552V55.2117Z" fill="black"/>
<path d="M80.4996 101.518C83.8972 101.518 86.6617 98.7541 86.6617 95.3562V87.526C89.0936 85.6353 90.5593 82.6966 90.5593 79.5774C90.5593 74.0306 86.0464 69.5177 80.4996 69.5177C74.9527 69.5177 70.4398 74.0306 70.4398 79.5774C70.4398 82.757 71.9089 85.6431 74.3374 87.5266V95.3562C74.3374 98.7538 77.1019 101.518 80.4996 101.518V101.518ZM80.4996 74.0004C83.5748 74.0004 86.0769 76.5025 86.0769 79.5777C86.0769 81.5572 85.011 83.406 83.2945 84.4029C82.6039 84.804 82.1793 85.5424 82.1793 86.3408V95.3562C82.1793 96.2822 81.4259 97.0359 80.4996 97.0359C79.5732 97.0359 78.8199 96.2825 78.8199 95.3562V86.3408C78.8199 85.5424 78.3949 84.804 77.7046 84.4029C76.0449 83.4389 74.9222 81.6501 74.9222 79.5777C74.9222 76.5022 77.4243 74.0004 80.4996 74.0004V74.0004Z" fill="black"/>
<path d="M58.8203 129.963L78.1584 140.929C79.6018 141.748 81.3959 141.749 82.8405 140.929L102.179 129.963C121.693 118.897 133.815 98.0877 133.815 75.6552V35.1818C133.815 32.7699 132.008 30.7439 129.613 30.4693C110.965 28.3305 94.8373 23.3529 82.9747 16.0741C81.4479 15.1375 79.5513 15.1378 78.0254 16.0741C66.1622 23.3529 50.0344 28.3305 31.3862 30.4693C28.9911 30.7439 27.1847 32.7696 27.1847 35.1818V75.6552C27.185 98.0877 39.3067 118.897 58.8203 129.963V129.963ZM31.6674 35.1818C31.6674 35.0491 31.766 34.9376 31.8972 34.9224C51.1909 32.7099 67.9525 27.5132 80.3701 19.8946C80.4504 19.845 80.5509 19.8453 80.6306 19.8946C93.0473 27.5132 109.809 32.7099 129.103 34.9224C129.233 34.9373 129.332 35.0488 129.332 35.1815V75.6549C129.332 96.4768 118.081 115.792 99.9685 126.064L80.6291 137.03C80.5488 137.076 80.4501 137.075 80.3701 137.03L61.0313 126.064C42.9193 115.792 31.6674 96.4768 31.6674 75.6549V35.1818Z" fill="black"/>
</g>
<defs>
<clipPath id="clip0">
<rect width="153" height="153" fill="white" transform="translate(4 1)"/>
</clipPath>
</defs>
</svg>
